<svg version="1.2" xmlns="http://www.w3.org/2000/svg" viewBox="0 0 1978 760" width="1978" height="760"><style>.a{opacity:1;fill:#e2bf0e}</style><path fill-rule="evenodd" class="a" d="m1733 463.5c16.1 0.2 29.6 0.9 32.5 1.5 2.8 0.7 7.9 2.6 11.5 4.3 3.6 1.7 8.5 5.1 11 7.6 2.5 2.5 5.7 7.2 7.3 10.4 1.5 3.1 3.5 8.7 4.5 12.4 1.6 6.3 1.7 15 1.7 110.3 0 83.8-0.3 104.6-1.4 109.5-0.7 3.3-2.7 8.9-4.3 12.5-1.9 4.1-4.9 8.3-8.2 11.5-3.6 3.6-7.9 6.2-14.6 9.2-5.2 2.4-10.4 4.3-11.5 4.3-1.1 0-2.9 0.7-4 1.5-1.6 1.2-5.8 1.5-21.8 1.5-16.8 0-19.7-0.2-19.7-1.5 0-1.1-1.1-1.5-4-1.5-2.9 0-4 0.4-4 1.5 0 1-1 1.5-3.3 1.5-1.7 0-4.5-0.7-6.2-1.5-1.7-0.9-3.7-1.6-4.5-1.6-0.8 0-5.5-1.9-10.5-4.2-5.2-2.5-11.1-6.2-14-8.9-2.8-2.5-6.2-7-7.8-9.9-1.5-3-3.5-7.9-4.4-10.9-1.6-5-1.8-14.9-2-109.5-0.3-93-0.2-104.8 1.3-112 0.9-4.4 2.9-10.6 4.5-13.7 1.6-3.2 4.6-7.7 6.8-10 2.1-2.4 6.5-5.7 9.7-7.5 3.3-1.7 7.9-3.7 10.4-4.4 2.5-0.6 7.4-1.5 11-2 3.6-0.4 18.9-0.6 34-0.4zm-26.1 51.9l-2.4 2.8v184c6.2 5.8 8.3 6.7 12.5 7.3 3 0.4 10.5 0.5 16.7 0.4 9.2-0.3 11.6-0.7 13.9-2.4 1.4-1.1 3.5-3.1 4.6-4.5 1.9-2.4 1.9-5.1 1.9-92 0-55.6-0.3-90.4-0.9-92-0.6-1.4-2.2-3.6-3.7-5-2.6-2.4-3.1-2.5-19.3-2.7-9.2-0.1-17.7 0.1-18.8 0.6-1.2 0.4-3.3 2-4.5 3.5zm197.1-51.9c21.6 0.2 28.8 0.6 33.5 1.9 3.3 0.9 8.5 2.9 11.5 4.4 3 1.5 7.4 4.6 9.7 7 2.4 2.3 5.9 7.5 7.8 11.5 1.9 3.9 4.1 10.8 5 15.2 1.3 6.3 1.6 12.8 1 53.7l-2.5 1.9c-2.3 1.8-4.1 2-22.7 1.9-18.9 0-20.4-0.1-22.3-2-1.8-1.8-2-3.3-2-18.5 0-11.7-0.4-17.4-1.4-19.7-0.7-1.8-2.6-4.4-4-5.8-2.6-2.4-3.4-2.5-17.4-2.8-14.1-0.3-14.9-0.2-18.2 2-1.9 1.3-4.1 3.5-4.7 4.8-0.9 1.8-1.3 10-1.3 29 0 19.9 0.3 26.9 1.2 28.2 0.8 1.1 17.6 7.1 44.3 15.8 23.7 7.7 44 14.7 45.3 15.5 1.2 0.8 3.1 3.4 4.2 5.8 1.9 4 2 6.5 2 50.5 0 28.7-0.4 48.2-1.1 51.5-0.5 2.8-1.9 7.9-3 11.2-1.2 3.3-3.7 8.5-5.8 11.5-2.3 3.4-6 7-9.7 9.5-3.2 2.2-9.3 5.3-13.4 7-4.1 1.6-7.7 3.2-8 3.6-0.3 0.4-2.4 0.9-4.7 1.3-3.4 0.5-4.3 0.3-4.3-0.9 0-1.3-2.4-1.5-15.5-1.5-13.1 0-15.5 0.2-15.5 1.5 0 1.2-1.8 1.5-10 1.5-8 0-10.1-0.3-10.5-1.5-0.3-1-1.8-1.5-4.2-1.5-2.3 0-7.3-1.7-12.8-4.3-5.6-2.6-11-6.2-14.3-9.2-3.3-3.1-6.5-7.3-8.3-11-1.5-3.3-3.5-9.5-4.4-13.7-1.1-5.7-1.5-14.3-1.5-31.8 0-20.5 0.2-24.2 1.6-25.5 1.3-1.2 5.4-1.5 23.2-1.5 19.2-0.1 21.9 0.1 23.2 1.6 1.2 1.3 1.6 5.7 2.5 39.4l6.5 6.5 30.5 0.7 3.4-2.9c1.9-1.5 4-4.3 4.8-6 0.9-2.4 1.3-9.7 1.3-27.5 0-18.1-0.3-24.7-1.2-25.9-0.8-1-19.8-7.8-44.3-15.9-23.7-7.8-44.2-15-45.7-15.9-1.5-0.9-3.4-3.1-4.3-4.8-1.3-2.8-1.5-10.3-1.5-52.3 0-40 0.3-50.3 1.5-56.3 0.9-3.9 2.6-9.5 3.9-12.2 1.4-2.8 4.4-7.3 6.9-10 2.4-2.8 7-6.4 10.3-8.2 3.2-1.7 7.9-3.7 10.4-4.4 2.5-0.6 7.4-1.5 11-2 3.6-0.4 18.9-0.6 34-0.4zm-1812.5-458.3c41.8 0 78.3 0.3 81 0.6 4.8 0.7 5.9 1.5 18 12.7 7.2 6.6 22.9 21.2 35 32.5 12 11.3 29.8 27.9 39.5 37 9.6 9.1 24 22.6 32 30 8 7.4 22.6 21.1 32.6 30.5 9.9 9.3 30.8 28.9 46.4 43.5 15.7 14.6 36.1 33.7 45.5 42.5 9.3 8.8 18.9 17.7 21.3 19.7 3.7 3.3 4.5 3.7 6.5 2.7 1.2-0.7 4.5-3.2 7.2-5.7 2.8-2.5 15.8-14.7 29.1-27.2 13.2-12.4 36.6-34.2 51.9-48.5 15.3-14.3 35.8-33.4 45.4-42.5 9.7-9.1 24.6-23 33.1-31 8.5-7.9 25.1-23.4 36.9-34.4 11.8-11.1 30.7-28.8 42-39.5 11.3-10.6 21.7-20.1 23.1-21 2.2-1.4 10.1-1.6 85.6-1.6 72.4 0 83.3 0.2 84.8 1.5 1.6 1.4 1.7 8.3 1.7 95.5-0.1 72.4-0.3 94.3-1.3 95.3-0.9 0.9-14.8 1.2-123.8 1.2l-1-2.5c-0.6-1.5-1-19.8-1-47.5 0-38.7-0.2-45.2-1.5-46.5-0.8-0.8-1.7-1.5-2-1.5-0.3 0-2.4 1.6-4.7 3.6-2.4 2-14.4 13-26.8 24.3-12.3 11.3-29 26.7-37 34.1-8 7.5-20.4 18.9-27.5 25.5-7.1 6.5-18.6 17.1-25.5 23.4-6.9 6.4-23.1 21.3-35.9 33.1-12.9 11.8-30.2 27.8-38.6 35.5-8.3 7.7-25.1 23.2-37.5 34.5-12.3 11.3-32.1 29.5-43.9 40.5-11.9 11-24 22.1-26.9 24.7-2.8 2.7-6.1 4.8-7.2 4.8-1.1 0-4.6-2.4-7.9-5.3-3.2-2.8-13.9-12.6-23.7-21.7-9.9-9-24.5-22.5-32.5-30-8-7.4-25-23.2-37.9-35-12.9-11.8-32.6-30-43.9-40.4-11.3-10.5-31.2-28.7-44.1-40.7-12.9-11.9-38.6-35.5-57-52.5-18.4-17-38-35-43.5-39.9-5.5-5-12.2-10.9-15-13.3-2.7-2.3-5.8-4.3-6.7-4.2-1 0-2 1-2.3 2.2-0.3 1.3-0.6 22.5-0.8 47.3-0.1 24.8-0.5 45.6-0.9 46.3-0.6 0.9-14.2 1.2-62 1.2-56.5 0.1-61.4 0-62.8-1.6-1.3-1.5-1.5-13.5-1.5-94.9 0-79.1 0.2-93.4 1.4-94.8 0.8-0.9 3-1.8 5-2 2-0.2 37.8-0.4 79.6-0.5zm74.2 165.8c0.2 0 3.6 2.8 7.6 6.3 4 3.4 23.2 20.4 42.7 37.7 19.5 17.3 43.9 38.9 54.1 48 10.2 9.1 37.8 33.6 61.4 54.5 23.6 20.9 55 48.8 69.9 62 14.8 13.2 30.9 27.5 35.8 31.8 4.8 4.2 9.7 7.7 10.8 7.7 1.1 0 7.7-5.1 15.2-11.7 7.2-6.5 19.7-17.7 27.8-24.8 8-7.1 21.8-19.3 30.5-27 8.7-7.7 20.4-18.1 26-23 5.6-4.9 17.3-15.4 26.1-23.1 8.7-7.8 26.5-23.6 39.4-35 13-11.5 38.8-34.4 57.5-50.9 18.6-16.5 38.9-34.4 45-39.9 6-5.4 12-10.6 13.3-11.5 1.2-0.9 2.6-1.2 3-0.8 0.4 0.5 0.8 27.9 1 61 0.2 39.1 0 61.4-0.7 63.7-0.8 2.7-7.3 9.5-28.8 30-15.2 14.6-46.8 45-70.2 67.5-23.4 22.6-47.8 46-54.1 52-6.3 5.9-23.4 22.3-38 36.4-14.6 14.1-40.9 39.3-58.3 56.1-17.5 16.8-32.7 31-33.7 31.5-1.6 0.9-4.5-1.5-20.2-16.5-10.1-9.6-31.6-30.3-47.8-45.9-16.2-15.7-35.6-34.4-43-41.5-7.5-7.2-28.4-27.3-46.5-44.6-18.1-17.3-51.8-49.7-75-72-23.1-22.3-44.4-42.8-52.5-50.5l-0.1-63.1c-0.1-34.7 0.1-63.4 0.6-63.7 0.5-0.4 1-0.7 1.2-0.7zm-96.1 51c57.5 0 61.4 0.1 62.2 1.8 0.4 0.9 0.7 37.1 0.7 80.4 0 43.2-0.4 79-0.8 79.5-0.5 0.4-28.2 0.9-61.5 1.1-51.8 0.2-61 0-62.7-1.2-2-1.4-2-2.6-2-79.9 0-64.7 0.2-78.7 1.4-80 1.2-1.6 6.8-1.7 62.7-1.7zm819.4 0l1 2.5c0.6 1.6 0.9 30.2 0.7 80.4-0.1 42.9-0.6 78.3-1 78.8-0.5 0.4-28.1 0.9-61.3 1-38.8 0.2-61.1-0.1-62.4-0.7-2-1-2-2.1-2.2-80.3-0.2-66.9 0-79.5 1.2-80.5 1.1-0.9 16.5-1.2 124-1.2zm-819.4 192c57.5 0 61.4 0.1 62.1 1.7 0.5 1 0.8 32.2 0.8 69.3 0 37.1-0.3 68.3-0.8 69.3-0.7 1.6-4.6 1.7-62 1.7-56.4 0.1-61.3 0-62.7-1.6-1.3-1.5-1.5-10.7-1.5-69.4 0-55.7 0.2-68 1.4-69.3 1.2-1.6 6.8-1.7 62.7-1.7zm819.4 0l1 2.5c0.6 1.6 1 26.8 1 68.5 0 41.7-0.4 66.9-2 71h-61.3c-48.1 0-61.5-0.2-62.5-1.2-1-1-1.3-16.1-1.4-69.9-0.2-57.6 0-68.7 1.2-69.7 1.1-0.9 16.5-1.2 124-1.2zm44.1 169c11.6 0 13.1 0.2 14.9 2 2 2 2 3.3 2 130l7 7 10.1-0.2c9.6-0.3 10.2-0.4 14.9-5.8v-63c0-42.6 0.3-63.9 1.1-65.7 0.6-1.6 1.6-3.1 2.2-3.5 0.7-0.4 6.7-0.8 13.4-0.8 9.6 0 12.6 0.3 13.8 1.5 0.8 0.8 1.8 3.9 2.1 6.8 0.3 2.8 0.4 34.7 0.2 70.7-0.4 56.7-0.6 66.2-2 70.5-0.9 2.8-3.2 7-5 9.5-1.9 2.5-5.4 5.6-7.8 7-2.5 1.3-7.9 3.2-12 4.2-5.5 1.3-11.5 1.8-22.5 1.8-11.3-0.1-17-0.5-23-2-4.4-1.1-10-3.2-12.5-4.8-2.9-1.8-5.7-4.7-7.7-8.2-1.8-3-3.7-7.6-4.3-10.2-0.6-3-1-31.8-1.1-74.2 0-63.2 0.1-69.6 1.6-71 1.3-1.3 4.2-1.6 14.6-1.6zm180.6 0.5l6.9 3.5c5.4 2.8 7.6 4.6 10.2 8.5 1.8 2.8 3.8 6.6 4.4 8.5 0.6 1.9 1.3 9.6 1.5 17 0.5 11.8 0.3 13.7-1.1 15.3-1.5 1.4-3.6 1.7-14.4 1.7-7 0-13.4-0.5-14.2-1-1-0.6-1.7-3.5-2.1-9.2-0.6-7.7-0.9-8.5-3.8-11-2.9-2.6-3.6-2.8-12.9-2.8-7.7 0-10.2 0.4-12.1 1.7-1.4 1-3.1 3.3-3.8 5.1-0.7 1.7-1.3 7.1-1.3 12-0.1 6.9 0.3 9.1 1.7 10.8 1.3 1.5 9.4 4.6 27.8 10.4 14.3 4.6 27.8 9 29.9 9.9 2.2 0.9 4.5 2.8 5.2 4.4 1.1 2.1 1.4 8.9 1.4 29.2 0 15.8-0.5 28.6-1.1 31.8-0.6 2.8-2 6.8-2.9 8.7-1 1.9-3.6 5.2-5.7 7.2-2.1 2-5.5 4.4-7.6 5.3-2 0.8-6.9 2.2-10.7 3-4.2 0.9-12.3 1.5-20.3 1.5-8.3 0-16.1-0.6-21.2-1.6-4.4-0.9-10-2.6-12.5-3.9-2.5-1.2-5.8-3.7-7.4-5.6-1.6-1.9-3.6-5-4.6-6.9-1-1.9-2.4-7.3-3-12-0.7-4.7-1.1-12-0.9-16.3 0.3-5.5 0.8-8 1.9-8.7 0.8-0.5 7.3-1 14.5-1 7.2 0 13.7 0.5 14.5 1 1.1 0.7 1.6 3.4 2 9.4 0.4 7.2 0.9 8.9 2.8 10.8 2 2 3.4 2.3 12.5 2.7 10.2 0.4 10.2 0.3 17.2-5.7l0.3-12.9c0.3-11.3 0.2-13-1.5-14.9-1.2-1.5-9.9-4.7-27.8-10.4-14.3-4.6-27.7-9.2-29.8-10.2-2.4-1.2-4.2-3-5.2-5.3-1.2-2.8-1.5-8.1-1.5-25.2 0-12 0.5-24.6 1-28 0.6-3.5 2.1-8.4 3.4-11 1.3-2.7 3.7-6 5.3-7.4 1.5-1.5 3.9-3.4 5.3-4.3 1.4-0.9 4.7-2.3 7.5-3.1 3.8-1.1 10.5-1.4 52.2-1zm91.8-0.5c35.8 0 46.3 0.2 47.3 1.2 0.9 0.9 1.2 5.2 1.2 14.8 0 9.3-0.3 13.9-1.2 14.8-0.8 0.8-5.2 1.2-14.4 1.2-10.4 0-13.6 0.3-14.8 1.5-1.4 1.3-1.6 8.8-1.6 67.8 0 36.4-0.4 66.8-0.8 67.5-0.4 0.7-2.7 1.7-5.2 2.2-2.5 0.5-7.2 0.9-10.5 0.9-3.3 0-8-0.4-10.5-0.9-2.5-0.5-4.8-1.5-5.2-2.2-0.4-0.7-0.8-31.1-0.8-67.5 0-57.6-0.2-66.5-1.5-67.8-1.2-1.2-4.3-1.5-14.5-1.5-10.2 0-13.3-0.3-14.5-1.5-1.2-1.2-1.5-4.5-1.7-14.8-0.2-10.4 0.1-13.6 1.2-14.5 1-0.9 13.1-1.2 47.5-1.2zm125.3 0c12.7 0 18.2 0.3 19.4 1.2 1.3 1 7.3 23.6 22.1 83.3 11.2 45.1 20.1 82.8 19.8 83.8-0.3 1-1.7 2.1-3.1 2.5-1.4 0.3-6.5 0.6-11.5 0.7-5 0-10.1-0.3-11.5-0.7-1.4-0.3-3-1.9-3.7-3.5-0.7-1.5-2.6-8.4-4.3-15.3-1.9-7.7-3.8-13-4.8-13.8-1.2-0.9-7.2-1.2-22.2-1.2-15 0-21 0.3-22.2 1.2-1.1 0.9-2.9 6.3-5.2 15.8-2.4 10.1-4 14.9-5.3 15.7-1 0.7-4.5 1.6-7.8 1.9-3.3 0.3-8.5 0.3-11.5-0.1-3-0.3-6.3-0.8-7.3-1.1-1.1-0.2-1.7-1.4-1.7-3.1 0-1.6 8.7-38.1 19.5-81.3 10.7-43.2 19.7-79.5 20-80.7 0.3-1.3 1.2-3 2.1-3.8 1.2-1.2 4.9-1.5 19.2-1.5zm-11 90.3c-2.3 10.4-3 15.3-2.3 16.3 0.8 1.2 3.5 1.4 14 1.2l13-0.3c0.5-3.9-0.8-11.1-2.5-18.5-1.7-7.4-4.5-17.7-6.3-22.8-2.3-6.7-3.7-9.3-4.9-9.2-1.2 0-2.5 2.6-4.7 9.3-1.7 5-4.5 15.9-6.3 24zm131.2-90c24 0.2 36.7 0.7 39.3 1.5 2 0.7 5.6 2.7 8 4.5 2.3 1.8 5.2 4.9 6.5 6.8 1.3 1.8 3 5.7 3.8 8.4 1.1 3.6 1.7 11.6 2.1 29.5 0.3 13.5 0.1 29.2-0.5 35-0.6 6.4-1.8 12.4-3.1 15.5-1.1 2.8-3.7 6.6-5.6 8.5q-3.5 3.5-3.5 6.3c0 1.5 2.5 12.9 5.5 25.5 3 12.5 5.5 23.9 5.5 25.5 0 1.7-0.6 2.9-1.7 3.1-1 0.3-4.5 0.8-7.8 1.2-3.3 0.3-8.8 0.4-12.2 0-3.5-0.3-6.9-1.2-7.6-1.8-0.7-0.7-3.8-12-7-25-4.6-19.4-6.1-24-7.7-24.8-1.1-0.5-5.6-1-9.9-1-5.7 0-8.4 0.4-9.5 1.5-1.4 1.3-1.6 4.9-1.6 25 0 21.4-0.2 23.6-1.7 24.4-1 0.5-4.5 1.2-7.8 1.6-3.3 0.4-8.8 0.5-12.2 0.1-3.5-0.3-7-1.3-7.8-2.1-1.3-1.3-1.5-12.2-1.7-84.3-0.2-71.1 0-83 1.2-84 1.2-1 9.7-1.2 37-0.9zm-7.1 59.3c0.1 21.2 0.3 25.6 1.6 26.9 1.2 1.2 4.2 1.5 14.1 1.5h12.6l6.8-7v-43l-5.8-6.5c-23.9-0.6-26.2-0.4-27.6 1-1.6 1.5-1.7 4.3-1.7 27.1zm127.4-59.6c24.5 0 34.5 0.4 38.2 1.4 2.8 0.7 6.3 2 8 2.9 1.7 0.8 4.4 3 6.1 4.9 1.8 1.8 4.1 5.1 5.2 7.3 1.1 2.2 2.5 6.7 3.1 10 0.7 3.9 1.1 24.5 1.1 59 0 34.5-0.4 55.1-1.1 59-0.6 3.3-2.1 8-3.4 10.5-1.3 2.5-3.6 5.7-5.2 7.1-1.5 1.5-4.7 3.6-7 4.8-2.4 1.2-7.8 2.8-12.1 3.6-5.6 1.1-14.5 1.5-33.2 1.5-14-0.1-27.5-0.5-30-1-2.5-0.5-4.8-1.5-5.2-2.2-0.4-0.7-0.8-38.3-0.9-83.5 0-75 0.1-82.3 1.6-83.7 1.4-1.4 6-1.6 34.8-1.6zm-3.4 85.6c0.1 46.7 0.2 50.5 1.9 52 1.4 1.4 3.7 1.6 13.4 1.3 11.3-0.4 11.9-0.5 14.5-3.2l2.8-2.7v-95.2c-6.4-5.7-6.7-5.8-17.9-5.8-9.1 0-11.8 0.3-13.1 1.6-1.5 1.4-1.6 6.4-1.6 52zm-1498.3-84.6c57.5 0 61.4 0.1 62.1 1.8 0.5 0.9 0.8 38.7 0.8 83.9 0 66.1-0.3 82.5-1.3 83.5-1 1-13.6 1.3-62.2 1.3-48.6 0-61.2-0.3-62.2-1.3-1-1-1.3-17.4-1.3-83.6 0-68 0.2-82.6 1.4-83.9 1.2-1.6 6.8-1.7 62.7-1.7zm819.4 0l1 2.5c0.6 1.6 0.9 31.4 0.7 84-0.2 65.2-0.5 81.7-1.5 82.7-1 1-13.5 1.3-61.6 1.3-52.2 0-60.5-0.2-62-1.5-1.6-1.4-1.7-7.8-1.8-84-0.2-69.7 0-82.8 1.2-83.8 1.1-0.9 16.5-1.2 124-1.2z"/></svg>